<svg width="24" height="24" viewBox="0 0 24 24" fill="none" xmlns="http://www.w3.org/2000/svg">
<path d="M13.0155 19.7583L13.0139 19.7598C12.4449 20.2764 11.5677 20.2763 10.9988 19.7522L10.9964 19.75L10.8864 19.65L10.8855 19.6492C8.25002 17.2648 6.11408 15.3287 4.64668 13.5098C3.18657 11.6999 2.44055 10.0679 2.49974 8.2972C2.55445 6.75099 3.34763 5.27056 4.62143 4.4033L4.6217 4.40311C7.01973 2.76809 9.99994 3.51872 11.6199 5.41479L12 5.85973L12.3802 5.41479C14.0012 3.5175 16.9808 2.75934 19.3773 4.40239L19.3786 4.4033C20.6525 5.27064 21.4458 6.75127 21.5003 8.29764L21.5004 8.29803C21.5642 10.068 20.8188 11.6996 19.357 13.5124C17.8943 15.3266 15.7674 17.2589 13.1466 19.6402L13.1156 19.6684L13.1138 19.6699L13.0155 19.7583Z" stroke="white"/>
</svg>
